<?xml version="1.0" encoding="UTF-8" standalone="no"?>
<!-- Created with Inkscape (http://www.inkscape.org/) -->

<svg
   width="64.737503mm"
   height="79.78466mm"
   viewBox="0 0 64.737503 79.78466"
   version="1.1"
   id="svg5"
   xml:space="preserve"
   xmlns:xlink="http://www.w3.org/1999/xlink"
   xmlns="http://www.w3.org/2000/svg"
   xmlns:svg="http://www.w3.org/2000/svg"><defs
     id="defs2"><linearGradient
       id="linearGradient4671"><stop
         style="stop-color:#ffd43b;stop-opacity:1"
         offset="0"
         id="stop4673" /><stop
         style="stop-color:#ffe873;stop-opacity:1"
         offset="1"
         id="stop4675" /></linearGradient><linearGradient
       id="linearGradient4689"><stop
         style="stop-color:#5a9fd4;stop-opacity:1"
         offset="0"
         id="stop4691" /><stop
         style="stop-color:#306998;stop-opacity:1"
         offset="1"
         id="stop4693" /></linearGradient><linearGradient
       x1="150.96111"
       y1="192.35176"
       x2="112.03144"
       y2="137.27299"
       id="linearGradient1475"
       xlink:href="#linearGradient4671"
       gradientUnits="userSpaceOnUse"
       gradientTransform="matrix(0.44185197,0,0,0.44611779,288.17945,82.108895)" /><linearGradient
       x1="26.648937"
       y1="20.603781"
       x2="135.66525"
       y2="114.39767"
       id="linearGradient1478"
       xlink:href="#linearGradient4689"
       gradientUnits="userSpaceOnUse"
       gradientTransform="matrix(0.44185197,0,0,0.44611779,288.17945,82.108895)" /></defs><g
     id="g446"
     style="display:inline"
     transform="translate(-75.361833,-80.172674)"><path
       style="fill:#ffffff;fill-opacity:1;stroke-width:0.0714375"
       d="m 118.43515,143.82688 c -0.0592,-0.0237 -5.56094,0.90283 -15.42748,2.59777 -1.27695,0.21936 -2.52274,0.43323 -2.76831,0.47543 -0.245564,0.0422 -0.446485,0.10749 -0.446485,0.14469 0,0.0372 0.152376,0.29764 0.338995,0.57878 0.40715,0.61334 1.56366,1.78816 2.30425,2.34146 1.26335,0.94378 3.21095,1.74509 4.64727,1.91151 v -5.2e-4 c 0.85809,0.0995 2.26778,0.0881 2.96054,-0.0243 0.86845,-0.14088 2.01475,-0.4892 2.71198,-0.82424 0.67115,-0.32251 1.89817,-1.12058 2.48667,-1.61695 0.88374,-0.74539 1.92612,-2.15156 2.50992,-3.38636 0.32211,-0.6813 0.78085,-2.15798 0.68265,-2.19728 z"
       id="path514" /><path
       style="fill:#ffffff;fill-opacity:1;stroke-width:0.0714375"
       d="m 126.72043,142.38356 c -0.12516,0 -7.58892,1.28201 -7.61142,1.30741 -0.007,0.008 -0.0977,0.3351 -0.20154,0.72709 -0.54596,2.06087 -1.4999,3.66822 -3.05821,5.15369 -4.75161,4.52951 -12.54228,3.70395 -16.211414,-1.71824 -0.24101,-0.35616 -0.460199,-0.67325 -0.487309,-0.70435 -0.02711,-0.0311 -0.416306,0.008 -0.864547,0.0868 -0.448236,0.0788 -1.682659,0.29051 -2.743501,0.47078 -1.060842,0.18027 -2.378399,0.40661 -2.92747,0.50281 -0.549076,0.0962 -1.007206,0.17518 -1.018026,0.17518 -0.01087,0 -0.01964,0.0474 -0.01964,0.10542 0,0.058 0.07231,0.15231 0.160714,0.20981 0.135029,0.0879 0.337937,0.0943 1.268139,0.0398 0.609004,-0.0357 1.478902,-0.0662 1.933216,-0.0672 0.947373,-0.003 0.889906,-0.0356 1.507918,0.85473 0.582906,0.83974 0.723395,1.12685 0.681095,1.38751 -0.02118,0.13049 -0.362398,0.95317 -0.75861,1.82831 -0.396206,0.87513 -0.720369,1.66418 -0.720369,1.75338 0,0.1163 0.1873,0.32217 0.660941,0.72709 1.151844,0.98475 1.933278,1.59053 2.048971,1.58853 0.06163,-10e-4 0.819224,-0.49798 1.683622,-1.10432 1.05994,-0.74353 1.63407,-1.10336 1.76372,-1.10536 0.20004,-0.003 1.79247,0.6148 2.09392,0.81235 0.23143,0.15164 0.28551,0.37249 0.5669,2.31511 0.16942,1.16957 0.27568,1.7042 0.35708,1.7942 0.11534,0.12745 0.58351,0.22844 1.64744,0.35554 0.27503,0.0329 0.813,0.0637 1.19528,0.0687 l 0.69505,0.009 0.14314,-0.2806 c 0.0787,-0.15433 0.38122,-0.85367 0.67231,-1.55392 0.7985,-1.92088 0.79441,-1.91267 0.99942,-2.00607 0.28712,-0.13082 1.92725,-0.4017 2.12752,-0.3514 0.10385,0.0261 0.44151,0.34807 0.81546,0.77721 1.46561,1.68193 1.89704,2.12876 2.05414,2.12804 0.16598,-7e-4 2.37889,-1.05843 2.88871,-1.3808 0.27937,-0.17665 0.30334,-0.21601 0.30334,-0.49454 -1.9e-4,-0.1665 -0.1288,-1.00368 -0.28577,-1.86035 -0.15698,-0.85671 -0.28577,-1.6801 -0.28577,-1.82935 0,-0.24898 0.0557,-0.32494 0.67541,-0.92449 0.5869,-0.56774 0.70801,-0.65371 0.92294,-0.65371 0.13605,0 1.03973,0.22815 2.00815,0.50695 1.72303,0.49605 1.76406,0.5042 1.90737,0.37517 0.14225,-0.12809 1.38112,-2.17158 1.69964,-2.80345 0.12,-0.23821 0.14147,-0.34997 0.0884,-0.46405 -0.0385,-0.0827 -0.62295,-0.74539 -1.29863,-1.47226 -0.67568,-0.72688 -1.27295,-1.40589 -1.32705,-1.50896 -0.0868,-0.16541 -0.077,-0.27714 0.0847,-0.95084 0.11363,-0.4734 0.23527,-0.81159 0.31987,-0.89039 0.075,-0.0699 0.56152,-0.25801 1.08159,-0.41858 0.52009,-0.16057 1.32175,-0.40757 1.78129,-0.5488 0.45956,-0.14123 0.88571,-0.30684 0.94671,-0.36794 0.1246,-0.12467 0.15252,-0.60099 0.0351,-0.60099 z"
       id="path512" /><path
       style="fill:#ffffff;fill-opacity:1;stroke-width:0.0714375"
       d="m 103.86911,95.81534 c -0.13136,-0.0033 -0.26418,-0.0031 -0.39584,5.17e-4 -0.52664,0.01457 -1.03831,0.08398 -1.3932,0.204639 -1.25338,0.426157 -2.19561,1.151111 -2.80861,2.161108 -0.716175,1.179991 -0.776921,2.688186 -0.15813,3.909326 0.42647,0.8416 1.20188,1.61785 2.03657,2.0376 0.76591,0.38517 0.75144,0.36437 0.93844,1.33945 0.10122,0.5279 0.16818,1.14021 0.16847,1.54203 4.1e-4,0.58334 -0.0171,0.68033 -0.14211,0.77463 -0.33082,0.24952 -3.937803,1.96608 -4.858104,2.312 -0.550068,0.20677 -1.200191,0.49706 -1.444873,0.64544 -1.967196,1.19298 -4.276516,3.83237 -5.433777,6.20995 -0.219926,0.45184 -0.52204,1.01767 -0.671277,1.25729 -0.705615,1.13301 -0.904319,1.91983 -0.963249,3.81476 -0.07259,2.3341 0.373744,5.24314 1.120862,7.30446 0.202133,0.55767 0.246002,0.62528 0.404627,0.62528 0.258719,0 2.389523,-0.35403 2.566251,-0.42633 0.127059,-0.052 0.170897,-0.18541 0.285771,-0.87126 0.110186,-0.65788 0.135108,-1.16579 0.132808,-2.70319 -0.0032,-2.16477 -0.08626,-2.82805 -0.511079,-4.08451 -0.241533,-0.71435 -0.252492,-0.78227 -0.168982,-1.08055 0.08886,-0.31739 0.09194,-0.3196 0.814937,-0.62477 1.510512,-0.63758 2.325681,-1.09898 3.91604,-2.21744 0.497628,-0.34997 0.919017,-0.63665 0.936377,-0.63665 0.01737,0 0.181757,0.25443 0.365352,0.56534 1.049988,1.77814 2.571936,3.5232 3.915006,4.4881 0.41852,0.30068 0.42818,0.39404 0.13281,1.32136 -0.49555,1.55581 -1.19471,4.24527 -1.12241,4.31757 0.0368,0.0368 2.06543,-0.3007 11.54865,-1.92081 1.15908,-0.19802 2.13409,-0.38433 2.16679,-0.41393 0.1217,-0.11033 0.62652,-2.7332 0.9002,-4.67827 0.28898,-2.05386 0.57214,-5.15002 0.69143,-7.55716 0.0269,-0.5415 0.0763,-1.00104 0.10956,-1.02164 0.0333,-0.0206 0.50945,0.0447 1.05833,0.14572 0.54889,0.10098 1.34462,0.21912 1.76837,0.26252 0.93601,0.0959 2.86509,0.0433 3.84214,-0.1049 0.3929,-0.0596 1.01994,-0.14486 1.3932,-0.18966 1.50353,-0.18061 3.13375,-0.47595 3.78633,-0.68574 l 0.32143,-0.10335 0.5643,-1.5782 0.56483,-1.5782 -0.045,-1.13998 c -0.04,-1.0153 -0.18202,-2.03686 -0.41755,-3.0055 -0.0624,-0.25678 -0.0774,-0.26762 -0.36587,-0.26769 -0.26148,-8e-5 -2.48694,0.21841 -2.53214,0.24856 -0.009,0.006 -0.0799,0.49643 -0.1571,1.08934 -0.18323,1.40784 -0.38387,1.87228 -0.96325,2.23036 l -0.24701,0.15244 -0.77256,-0.31729 c -2.3199,-0.95366 -5.64278,-1.47807 -7.98091,-1.25935 -0.55384,0.0518 -1.50508,0.0876 -2.11408,0.0796 -2.15,-0.0282 -5.09884,-0.16118 -5.24568,-0.23668 -0.69781,-0.35854 -0.69365,-0.98454 0.009,-1.48931 0.16892,-0.12132 0.30696,-0.26075 0.30696,-0.30955 0,-0.10952 -0.37081,-1.81692 -0.61495,-2.83135 -0.0993,-0.41256 -0.27367,-1.16269 -0.38757,-1.66708 -0.23868,-1.056975 -0.41683,-1.481583 -0.87953,-2.092895 -0.67461,-0.891285 -1.69784,-1.537223 -2.88303,-1.820561 -0.31169,-0.07451 -0.69423,-0.115735 -1.08831,-0.125574 z"
       id="path508" /></g><g
     id="layer3"
     style="display:inline"
     transform="translate(-75.361833,-80.172674)"><path
       id="rect553"
       style="display:inline;fill:#ffffff;fill-opacity:1;stroke-width:0.264583"
       d="m 76.361833,133.21183 62.737517,-10.88915 c 0.54584,-0.0947 1,0.446 1,1 v 15.09486 c 0,0.554 -0.45403,0.90605 -1,1 l -62.737517,10.79608 c -0.545975,0.094 -1,-0.446 -1,-1 v -15.00179 c 0,-0.554 0.454161,-0.90526 1,-1 z" /></g><g
     id="layer4"
     style="display:inline"
     transform="translate(-75.361833,-80.172674)"><g
       aria-label="WORKSHOP"
       transform="scale(0.69639277,1.4359712)"
       id="text935"
       style="font-weight:bold;font-size:15.1898px;line-height:0;font-family:'Fira Code';-inkscape-font-specification:'Fira Code Bold';letter-spacing:0px;display:inline;fill:#000000;fill-opacity:1;stroke-width:1.37395"
       class="UnoptimicedTransforms"><path
         d="m 113.97262,98.794439 c 0.54541,-1.39132 1.08792,-2.782303 1.62752,-4.172949 0.18276,1.507645 0.37089,3.014703 0.5644,4.521174 -0.55097,1.314236 -1.10493,2.628816 -1.66189,3.943746 l -3.01184,0.24967 c -0.46736,-3.16889 -0.90893,-6.340595 -1.32472,-9.515121 l 3.22662,-0.265203 c 0.18627,1.746994 0.37958,3.493222 0.57991,5.238683 z m 6.35094,3.809451 -3.16958,0.26274 c -0.42937,-3.170741 -0.83492,-6.344083 -1.21663,-9.520024 l 3.27062,-0.26882 c 0.34945,3.177808 0.72131,6.353176 1.11559,9.526104 z m 1.40708,-9.733448 2.95529,-0.242903 c -1.29466,3.144965 -2.60748,6.292022 -3.93846,9.441171 -0.20799,-1.69062 -0.40966,-3.381923 -0.60501,-5.073917 0.53237,-1.375128 1.06176,-2.749912 1.58818,-4.124351 z"
         style="font-family:'Black Ops One';-inkscape-font-specification:'Black Ops One Bold';fill:#000000;fill-opacity:1"
         id="path308" /><path
         d="m 127.40474,100.06115 1.24081,-0.102688 c -0.0802,0.658508 -0.16031,1.317008 -0.24033,1.975498 l -2.55369,0.21169 c -0.59092,-0.59092 -1.17856,-1.18221 -1.76294,-1.77385 0.25839,-1.946239 0.51761,-3.892542 0.77765,-5.838913 0.74718,-0.701563 1.49128,-1.402778 2.23229,-2.103645 l 2.4933,-0.204931 c -0.0806,0.656129 -0.16119,1.312249 -0.24164,1.968362 l -1.2233,0.100724 c -0.24152,1.922649 -0.48224,3.845232 -0.72215,5.767753 z m 3.70669,-6.013493 -1.2454,0.102543 c 0.0796,-0.656019 0.15932,-1.312046 0.23913,-1.96808 l 2.51529,-0.206738 c 0.58054,0.591981 1.16435,1.183599 1.75141,1.774856 -0.21417,1.941237 -0.42752,3.882407 -0.64004,5.823508 -0.73847,0.700674 -1.48001,1.401704 -2.22463,2.103074 l -2.57621,0.21355 c 0.0792,-0.65839 0.15844,-1.3168 0.2378,-1.975207 l 1.26322,-0.104538 c 0.22567,-1.920923 0.45214,-3.841912 0.67943,-5.762968 z"
         style="font-family:'Black Ops One';-inkscape-font-specification:'Black Ops One Bold';fill:#000000;fill-opacity:1"
         id="path310" /><path
         d="m 135.05231,101.38294 c 0.34087,-3.230492 0.68401,-6.461177 1.02943,-9.69205 l 3.24129,-0.266408 c -0.31926,3.227944 -0.63624,6.4557 -0.95093,9.683268 z m 4.59554,-8.067103 c 0.0627,-0.644509 0.12558,-1.289024 0.18851,-1.933548 l 3.70328,-0.304381 c 0.59326,0.590413 1.18975,1.180466 1.78947,1.770159 -0.0805,0.966447 -0.16089,1.932876 -0.24102,2.899288 -0.54577,0.537009 -1.09334,1.074221 -1.64271,1.611637 -0.0289,-0.06514 -0.0578,-0.130288 -0.0866,-0.195435 -1.04154,0.218722 -2.08411,0.437558 -3.12768,0.656508 0.0317,0.08181 0.0635,0.163621 0.0953,0.245426 l -1.14847,0.09497 c 0.0604,-0.625017 0.12091,-1.25004 0.18149,-1.87507 l 2.46449,-0.203451 c 0.0899,-0.989157 0.18004,-1.978332 0.27038,-2.967525 z m 5.37885,7.240283 -3.54511,0.29387 c -0.38865,-0.927773 -0.77373,-1.855939 -1.15522,-2.784499 l 2.61761,-0.216444 c 0.1673,-0.163371 0.33443,-0.326722 0.5014,-0.490055 0.52172,1.066302 1.04883,2.13201 1.58132,3.197128 z"
         style="font-family:'Black Ops One';-inkscape-font-specification:'Black Ops One Bold';fill:#000000;fill-opacity:1"
         id="path312" /><path
         d="m 146.21342,100.45774 c 0.25288,-3.220649 0.50805,-6.441488 0.7655,-9.662515 l 3.2413,-0.266409 c -0.23129,3.218098 -0.46029,6.436009 -0.68701,9.653734 z m 3.92532,-1.684947 c 0.10855,-1.563808 0.21765,-3.12766 0.32728,-4.691557 0.8484,-1.258399 1.6903,-2.51606 2.52569,-3.772985 1.12461,-0.09484 2.24919,-0.189677 3.37376,-0.284512 -2.03813,2.912111 -4.11371,5.828463 -6.22673,8.749054 z m 5.84628,0.87493 -3.59018,0.297608 c -0.328,-0.717547 -0.65381,-1.435336 -0.97743,-2.153367 0.71574,-1.006493 1.4271,-2.01249 2.13405,-3.017988 0.79909,1.625918 1.61027,3.2505 2.43356,4.873747 z"
         style="font-family:'Black Ops One';-inkscape-font-specification:'Black Ops One Bold';fill:#000000;fill-opacity:1"
         id="path314" /><path
         d="m 162.66216,99.09422 c 0.0462,-1.200792 0.0926,-2.401611 0.13942,-3.602457 l -4.27304,0.353107 c -0.62821,-0.588923 -1.25316,-1.178208 -1.87487,-1.767853 0.0396,-0.723712 0.0792,-1.447433 0.11904,-2.171163 0.68863,-0.695228 1.3742,-1.390111 2.05672,-2.08465 l 1.09999,-0.09041 c -0.0543,1.139106 -0.10825,2.278188 -0.16195,3.417246 l 4.51172,-0.371972 c 0.61053,0.59024 1.2242,1.180132 1.84101,1.769675 -0.0243,0.784548 -0.0484,1.569084 -0.0724,2.353609 -0.67987,0.694338 -1.36279,1.389019 -2.04875,2.084044 -0.44565,0.03694 -0.89129,0.07388 -1.33693,0.110825 z m -2.29957,-7.671835 c 0.0266,-0.577921 0.0534,-1.155849 0.0801,-1.733783 l 3.89395,-0.320053 c 0.54179,0.511767 1.08602,1.023262 1.6327,1.534487 -0.0109,0.340414 -0.0219,0.680826 -0.0327,1.021236 l -3.00489,0.247581 c 0.0127,-0.321366 0.0254,-0.642734 0.0381,-0.964104 z m -3.85329,5.304973 3.29625,-0.27256 c -0.0176,0.382069 -0.0353,0.764135 -0.0528,1.146198 l 2.45302,-0.203038 c -0.0232,0.579955 -0.0463,1.159903 -0.0693,1.739845 l -4.10843,0.340569 c -0.5264,-0.594798 -1.05007,-1.189899 -1.57102,-1.785302 0.0174,-0.321902 0.0349,-0.643806 0.0523,-0.965712 z"
         style="font-family:'Black Ops One';-inkscape-font-specification:'Black Ops One Bold';fill:#000000;fill-opacity:1"
         id="path316" /><path
         d="m 173.99456,88.574746 3.27062,-0.268821 c -0.0129,3.193664 -0.0236,6.387139 -0.032,9.580426 l -3.32731,0.275818 c 0.0141,-1.298239 0.0285,-2.59651 0.0433,-3.894811 l -2.4399,0.201568 c 0.0112,-0.641156 0.0225,-1.282319 0.0339,-1.92349 l 2.40601,-0.19843 c 0.0148,-1.257391 0.0299,-2.514811 0.0454,-3.77226 z m -3.07799,9.835222 -3.31979,0.275195 c 0.0843,-3.201787 0.17096,-6.403763 0.25986,-9.605927 l 3.24129,-0.26641 c -0.0627,3.199236 -0.12319,6.398283 -0.18136,9.597142 z"
         style="font-family:'Black Ops One';-inkscape-font-specification:'Black Ops One Bold';fill:#000000;fill-opacity:1"
         id="path318" /><path
         d="m 182.05977,95.538173 1.2408,-0.102683 c 0.008,0.648648 0.0159,1.297289 0.0239,1.945922 l -2.55369,0.211689 c -0.67737,-0.581245 -1.35146,-1.162854 -2.02228,-1.744826 -0.002,-1.917137 -0.002,-3.834343 -0.002,-5.751616 0.66074,-0.691889 1.31839,-1.38343 1.97295,-2.074622 l 2.49331,-0.20493 c 0.007,0.646307 0.0143,1.292607 0.0216,1.938899 l -1.2233,0.100724 c 0.0155,1.89388 0.0319,3.787695 0.049,5.681443 z m 2.93551,-5.927183 -1.24539,0.102543 c -0.008,-0.646198 -0.0162,-1.292404 -0.0241,-1.938618 l 2.51529,-0.206738 c 0.66699,0.582306 1.33724,1.16425 2.01075,1.745832 0.0458,1.91214 0.0925,3.824212 0.13993,5.736217 -0.65201,0.691002 -1.30711,1.382351 -1.96528,2.074048 l -2.57621,0.213555 c -0.009,-0.648538 -0.0177,-1.297085 -0.0264,-1.945639 l 1.26322,-0.104538 c -0.0314,-1.892154 -0.062,-3.784375 -0.0917,-5.676662 z"
         style="font-family:'Black Ops One';-inkscape-font-specification:'Black Ops One Bold';fill:#000000;fill-opacity:1"
         id="path320" /><path
         d="m 189.95655,96.831645 c -0.0919,-3.182063 -0.18152,-6.364315 -0.26887,-9.546754 l 3.18262,-0.261588 c 0.11304,3.179565 0.22836,6.358941 0.34596,9.538128 z m 3.49755,-7.94597 c -0.0236,-0.634847 -0.0471,-1.269701 -0.0705,-1.904563 l 3.63728,-0.298957 c 0.67704,0.580964 1.3573,1.16157 2.04078,1.741817 0.0559,1.088291 0.11214,2.17656 0.16862,3.264807 -0.62327,0.690401 -1.24959,1.381145 -1.87896,2.072235 l -3.70274,0.306282 c -0.0242,-0.637201 -0.0482,-1.274411 -0.0722,-1.911628 l 2.38491,-0.19694 c -0.0476,-1.089247 -0.0948,-2.178515 -0.14183,-3.267806 z"
         style="font-family:'Black Ops One';-inkscape-font-specification:'Black Ops One Bold';fill:#000000;fill-opacity:1"
         id="path322" /></g></g><g
     id="g2303"
     transform="matrix(0.26288255,-0.02995168,0.02995168,0.26288255,-42.782908,-13.601496)"><path
       id="path1948"
       style="fill:url(#linearGradient1478);fill-opacity:1;stroke-width:0.785457"
       d="m 343.09069,91.301341 c -3.60026,0.01669 -7.03844,0.323774 -10.06367,0.85909 -8.91197,1.574447 -10.53004,4.86991 -10.53004,10.947309 v 8.02639 h 21.06008 v 2.67546 h -21.06008 -7.90367 c -6.12064,0 -11.48006,3.67887 -13.1564,10.67732 -1.93366,8.02185 -2.01944,13.02761 0,21.40372 1.49701,6.23484 5.07212,10.6773 11.19276,10.6773 h 7.24093 v -9.62185 c 0,-6.95121 6.01436,-13.08277 13.15642,-13.08277 h 21.03553 c 5.85554,0 10.53004,-4.82126 10.53003,-10.70187 v -20.0537 c 0,-5.707399 -4.81484,-9.994764 -10.53003,-10.947309 -3.61782,-0.602238 -7.3716,-0.87582 -10.97186,-0.85909 z m -11.38914,6.45547 c 2.17536,0 3.95184,1.805488 3.95184,4.025469 0,2.21212 -1.77648,4.00093 -3.95184,4.00093 -2.18315,0 -3.95183,-1.78881 -3.95183,-4.00093 0,-2.219981 1.76868,-4.025469 3.95183,-4.025469 z" /><path
       id="path1950"
       style="fill:url(#linearGradient1475);fill-opacity:1;stroke-width:0.785457"
       d="m 367.21895,113.80959 v 9.35185 c 0,7.25038 -6.14689,13.35279 -13.1564,13.35279 h -21.03553 c -5.76199,0 -10.53004,4.93148 -10.53004,10.70185 v 20.05371 c 0,5.7074 4.96297,9.06442 10.53004,10.70185 6.66644,1.96019 13.0592,2.31445 21.03553,0 5.30195,-1.53509 10.53004,-4.62446 10.53003,-10.70185 v -8.02639 h -21.03552 v -2.67547 h 21.03552 10.53004 c 6.12065,0 8.40145,-4.26927 10.53004,-10.6773 2.19875,-6.59698 2.10519,-12.94102 0,-21.40372 -1.51263,-6.09314 -4.4016,-10.67732 -10.53004,-10.67732 z M 355.388,164.59433 c 2.18317,0 3.95183,1.78881 3.95183,4.00092 0,2.21997 -1.76866,4.02546 -3.95183,4.02546 -2.17536,0 -3.95182,-1.80549 -3.95182,-4.02546 0,-2.21211 1.77646,-4.00092 3.95182,-4.00092 z" /></g></svg>
